<svg xmlns="http://www.w3.org/2000/svg" xmlns:xlink="http://www.w3.org/1999/xlink" width="336.734" height="90" viewBox="0 0 336.734 90">
  <defs>
    <clipPath id="clip-docker_on">
      <rect width="336.734" height="90"/>
    </clipPath>
  </defs>
  <g id="docker_on" clip-path="url(#clip-docker_on)">
    <g id="Group_1090" data-name="Group 1090" transform="translate(-8164 -192.27)">
      <path id="Path_601" data-name="Path 601" d="M1582.124,382.43c14.139,10.32,17.812,34.043,17.812,34.043s-19.251,6.989-33.392-3.332-17.813-34.045-17.813-34.045S1567.983,372.107,1582.124,382.43Z" transform="translate(6899.848 -145.985)" fill="#a4a9ad" opacity="0.5"/>
      <g id="card" transform="translate(8165.728 193.976)">
        <rect id="bg" width="292.333" height="79.001" rx="12" fill="#4a5967"/>
      </g>
      <path id="Union_65" data-name="Union 65" d="M12.373,49.657q-.6,0-1.187-.058h-.454A10.36,10.36,0,0,1,.373,39.239c0-2.224-.151-4.174,0-5.727v-20H.447q.266,1.814.689,3.591A42.3,42.3,0,0,1,.645,0,64.7,64.7,0,0,1,44.233,17.429l0,0,.073.073q1.014.946,1.985,1.938c4.336,3.993,12.776,9.89,30.707,9.89h73.072l138.556-.272c5.721,0,3.975,4.464,3.975,10.185a10.36,10.36,0,0,1-10.36,10.36H45.268v.057H12.373ZM1.151,17.162Zm0,0v0A0,0,0,0,0,1.151,17.161Z" transform="translate(8165.355 223.321)" fill="#a4a9ad"/>
      <path id="Path_604" data-name="Path 604" d="M13.632,35.119C25.5,46.985,43.095,48.629,45.861,45.862S46.985,25.5,35.119,13.632,9.611-3.835,2.888,2.888,1.765,23.251,13.632,35.119Z" transform="matrix(0.998, -0.07, 0.07, 0.998, 8335.229, 237.34)" fill="#3c4650"/>
      <circle id="Ellipse_410" data-name="Ellipse 410" cx="6.264" cy="6.264" r="6.264" transform="translate(8217.102 227.342)" fill="#000102"/>
      <path id="Path_605" data-name="Path 605" d="M1582.124,356.39c14.139-10.32,17.812-34.044,17.812-34.044s-19.251-6.989-33.392,3.332-17.813,34.044-17.813,34.044S1567.983,366.712,1582.124,356.39Z" transform="translate(6899.848 -124.802)" fill="#4a5967"/>
    </g>
  </g>
</svg>
