<svg xmlns="http://www.w3.org/2000/svg" xmlns:xlink="http://www.w3.org/1999/xlink" width="336.734" height="91" viewBox="0 0 336.734 91">
  <defs>
    <clipPath id="clip-docker_off">
      <rect width="336.734" height="91"/>
    </clipPath>
  </defs>
  <g id="docker_off" clip-path="url(#clip-docker_off)">
    <path id="Path_630" data-name="Path 630" d="M1582.024,382.413c14.1,10.289,17.758,33.941,17.758,33.941s-19.193,6.968-33.292-3.322-17.759-33.943-17.759-33.943S1567.926,372.121,1582.024,382.413Z" transform="translate(-1264.999 -337.8)" fill="#a4a9ad" opacity="0.5"/>
    <path id="Path_634" data-name="Path 634" d="M1582.024,356.281c14.1-10.29,17.758-33.942,17.758-33.942s-19.193-6.968-33.292,3.322-17.759,33.942-17.759,33.942S1567.926,366.573,1582.024,356.281Z" transform="translate(-1264.999 -316.51)" fill="#4a5967"/>
    <g id="card" transform="translate(1.727 2.271)">
      <rect id="bg" width="291.458" height="78.765" rx="12" fill="#4a5967"/>
    </g>
    <ellipse id="Ellipse_411" data-name="Ellipse 411" cx="6.246" cy="6.246" rx="6.246" ry="6.246" transform="translate(52.947 35.537)" fill="#000102"/>
    <text id="_02" data-name="02" transform="translate(25.376 76.967)" fill="#fff" font-size="32" font-family="3270Medium, "IBM 3270""><tspan x="-17.152" y="0">02</tspan></text>
    <g id="Group_1092" data-name="Group 1092" transform="translate(32.254 -5.661)">
      <text id="Z" transform="translate(7 36.284)" fill="#fff" font-size="27" font-family="3270Medium, "IBM 3270""><tspan x="-7.236" y="0">Z</tspan></text>
      <text id="Z-2" data-name="Z" transform="translate(20.49 28.348)" fill="#fff" font-size="27" font-family="3270Medium, "IBM 3270""><tspan x="-7.236" y="0">Z</tspan></text>
      <text id="Z-3" data-name="Z" transform="translate(33.187 22)" fill="#fff" font-size="27" font-family="3270Medium, "IBM 3270""><tspan x="-7.236" y="0">Z</tspan></text>
    </g>
    <g id="Group_1093" data-name="Group 1093" transform="translate(52.695 35.63)">
      <g id="Group_999" data-name="Group 999" transform="translate(0 0)">
        <path id="Exclusion_9" data-name="Exclusion 9" d="M6.436,12.4a6.606,6.606,0,0,1-2.505-.487,6.434,6.434,0,0,1-2.046-1.329A6.172,6.172,0,0,1,.506,8.612a6.009,6.009,0,0,1,0-4.826A6.172,6.172,0,0,1,1.885,1.816,6.434,6.434,0,0,1,3.931.487a6.684,6.684,0,0,1,5.01,0,6.434,6.434,0,0,1,2.046,1.329,6.172,6.172,0,0,1,1.379,1.971,6.009,6.009,0,0,1,0,4.826,6.172,6.172,0,0,1-1.379,1.971,6.434,6.434,0,0,1-2.046,1.329A6.607,6.607,0,0,1,6.436,12.4Zm0-8.6a12.9,12.9,0,0,0-4.144.6C1.06,4.833.409,5.456.409,6.2a5.587,5.587,0,0,0,.474,2.26A5.78,5.78,0,0,0,2.174,10.3,6.025,6.025,0,0,0,4.09,11.549a6.26,6.26,0,0,0,4.692,0A6.025,6.025,0,0,0,10.7,10.3,5.78,5.78,0,0,0,11.99,8.459a5.587,5.587,0,0,0,.474-2.26c0-.743-.651-1.367-1.884-1.8A12.9,12.9,0,0,0,6.436,3.795Z" fill="#404040"/>
      </g>
    </g>
    <path id="Union_68" data-name="Union 68" d="M12.371,49.507q-.594,0-1.178-.057H10.7A10.328,10.328,0,0,1,.372,39.122c0-2.218-.151-4.163,0-5.711V13.469H.446Q.656,14.9.963,16.3A42.176,42.176,0,0,1,.644,0,64.507,64.507,0,0,1,44.1,17.377l0,0,.072.072q1.011.945,1.981,1.932c4.323,3.982,12.737,9.86,30.614,9.86h73.1l137.9-.27c5.7,0,3.963,4.45,3.963,10.155A10.328,10.328,0,0,1,281.4,49.451H45.133v.056H12.371ZM.971,16.337Z" transform="translate(1.355 31.528)" fill="#a4a9ad"/>
    <path id="Path_633" data-name="Path 633" d="M13.591,35.014c11.832,11.83,29.375,13.469,32.133,10.71s1.12-20.3-10.71-32.134S9.583-3.823,2.879,2.88,1.76,23.181,13.591,35.014Z" transform="matrix(0.998, -0.07, 0.07, 0.998, 170.72, 45.505)" fill="#3c4650"/>
  </g>
</svg>
